<!--?xml version="1.0" standalone="no"?-->
              <svg id="sw-js-blob-svg" viewBox="0 0 100 100" xmlns="http://www.w3.org/2000/svg" version="1.1">
                    <defs> 
                        <linearGradient id="sw-gradient" x1="0" x2="1" y1="1" y2="0">
                            <stop id="stop1" stop-color="rgba(11, 52, 255, 1)" offset="0%"></stop>
                            <stop id="stop2" stop-color="rgba(105.96, 179.793, 249.481, 1)" offset="100%"></stop>
                        </linearGradient>
                    </defs>
                <path fill="url(#sw-gradient)" d="M19.1,-28.5C23.3,-27,24.2,-19.3,23.4,-13C22.5,-6.8,20,-2.2,18.6,2.2C17.2,6.5,17,10.5,15.4,14.7C13.9,18.9,11,23.4,6.6,26.6C2.1,29.9,-3.9,31.9,-9.4,30.9C-14.9,29.8,-19.9,25.7,-24,20.8C-28.1,16,-31.3,10.5,-30.4,5.4C-29.5,0.4,-24.4,-4.2,-23.1,-11.9C-21.7,-19.5,-24,-30.2,-20.8,-32.1C-17.5,-33.9,-8.8,-26.9,-0.7,-25.9C7.5,-24.9,14.9,-29.9,19.1,-28.5Z" width="100%" height="100%" transform="translate(50 50)" stroke-width="0" style="transition: all 0.3s ease 0s;" stroke="url(#sw-gradient)"></path>
              </svg>