<svg width="1562" height="1485" viewBox="0 0 1562 1485" fill="none" xmlns="http://www.w3.org/2000/svg">
<g clip-path="url(#clip0_114_2)">
<path d="M1406.65 1438.67C1412.57 1439.04 1415.84 1431.75 1411.36 1427.51L1410.92 1425.76C1410.97 1425.62 1411.03 1425.48 1411.09 1425.34C1417.07 1411.21 1437.35 1411.3 1443.28 1425.46C1448.54 1438.02 1455.24 1450.6 1456.89 1463.88C1457.63 1469.74 1457.3 1475.72 1455.99 1481.47C1468.32 1454.77 1474.81 1425.62 1474.81 1396.31C1474.81 1388.94 1474.41 1381.58 1473.57 1374.23C1472.89 1368.22 1471.95 1362.25 1470.73 1356.33C1464.12 1324.34 1449.83 1293.87 1429.21 1268.42C1419.3 1263.06 1411.03 1254.66 1406.04 1244.61C1404.25 1240.98 1402.84 1237.08 1402.17 1233.1C1403.3 1233.25 1406.43 1216.23 1405.58 1215.18C1407.15 1212.82 1409.96 1211.64 1411.68 1209.34C1420.22 1197.87 1431.98 1199.87 1438.12 1215.46C1451.24 1222.02 1451.37 1232.9 1443.32 1243.36C1438.2 1250.02 1437.5 1259.03 1433 1266.15C1433.46 1266.74 1433.94 1267.31 1434.41 1267.89C1442.88 1278.67 1450.22 1290.25 1456.4 1302.41C1454.65 1288.89 1457.23 1272.6 1461.63 1262.1C1466.63 1250.14 1476.01 1240.07 1484.28 1229.72C1494.2 1217.3 1514.55 1222.72 1516.3 1238.47C1516.31 1238.62 1516.33 1238.77 1516.35 1238.93C1515.12 1239.61 1513.92 1240.34 1512.74 1241.11C1506.04 1245.5 1508.36 1255.79 1516.3 1257L1516.48 1257.03C1516.03 1261.41 1515.27 1265.75 1514.16 1270.02C1524.76 1310.63 1501.88 1325.42 1469.21 1326.08C1468.49 1326.45 1467.79 1326.82 1467.06 1327.16C1470.37 1336.4 1473.02 1345.87 1474.98 1355.47C1476.74 1363.95 1477.96 1372.53 1478.64 1381.14C1479.49 1392 1479.42 1402.92 1478.49 1413.77L1478.55 1413.39C1480.9 1401.44 1487.44 1390.28 1496.95 1382.55C1511.11 1371.03 1531.11 1366.78 1546.39 1357.52C1553.74 1353.06 1563.17 1358.82 1561.88 1367.27L1561.82 1367.67C1559.54 1368.59 1557.33 1369.65 1555.18 1370.84C1553.95 1371.53 1552.75 1372.26 1551.58 1373.03C1544.88 1377.42 1547.19 1387.7 1555.13 1388.92L1555.31 1388.94C1555.44 1388.96 1555.55 1388.98 1555.68 1389C1551.78 1398.18 1546.34 1406.7 1539.54 1414.05C1532.91 1449.5 1504.45 1452.86 1474 1442.54H1473.98C1470.65 1456.9 1465.79 1470.93 1459.54 1484.31H1407.94C1407.76 1483.74 1407.59 1483.15 1407.43 1482.59C1412.2 1482.88 1417.01 1482.61 1421.7 1481.74C1417.87 1477.09 1414.05 1472.4 1410.22 1467.75C1410.13 1467.65 1410.05 1467.56 1409.98 1467.47C1408.04 1465.09 1406.08 1462.73 1404.14 1460.34L1404.13 1460.34C1404.01 1453.03 1404.9 1445.74 1406.65 1438.67Z" fill="#04D000"/>
<path d="M457.388 1481.62C457.388 1483.5 458.906 1485 460.795 1485H1558.19C1560.08 1485 1561.6 1483.5 1561.6 1481.62C1561.6 1479.75 1560.08 1478.25 1558.19 1478.25H460.795C458.906 1478.25 457.388 1479.75 457.388 1481.62Z" fill="#CCCCCC"/>
<path d="M623.908 1483.56H118.787C57.1959 1483.56 7.08765 1433.92 7.08765 1372.89V297.371C7.08765 236.348 57.1959 186.703 118.787 186.703H623.908C685.497 186.703 735.605 236.348 735.605 297.371V1372.89C735.605 1433.92 685.497 1483.56 623.908 1483.56Z" fill="black"/>
<path d="M735.606 582.315C733 582.315 730.881 584.415 730.881 586.997V736.814C730.881 739.397 733 741.496 735.606 741.496C738.212 741.496 740.331 739.397 740.331 736.814V586.997C740.331 584.415 738.212 582.315 735.606 582.315Z" fill="black"/>
<path d="M724.974 297.372V1372.87C724.974 1425.99 683.249 1469.44 630.49 1472.81H630.466C629.687 1472.85 628.907 1472.9 628.104 1472.92C626.709 1472.99 625.316 1473.02 623.898 1473.02C623.898 1473.02 618.7 1472.64 609.202 1471.94C599.609 1471.24 585.646 1470.19 568.233 1468.8C563.011 1468.41 557.506 1467.96 551.694 1467.49C540.116 1466.56 527.405 1465.53 513.772 1464.36C508.338 1463.91 502.715 1463.42 496.973 1462.93C467.629 1460.42 434.763 1457.5 400.103 1454.17C394.243 1453.64 388.336 1453.07 382.382 1452.49C380.823 1452.32 379.24 1452.18 377.657 1452.02C352.943 1449.61 17.7209 1385.42 17.7209 1372.87V297.372C17.7209 242.056 62.9668 197.228 118.798 197.228H179.141C188.781 197.228 196.53 204.672 197.357 214.2C197.428 214.832 197.499 215.464 197.617 216.096C199.366 225.67 208.226 232.342 218.055 232.342H524.641C534.47 232.342 543.33 225.67 545.078 216.096C545.196 215.464 545.267 214.832 545.338 214.2C546.165 204.672 553.915 197.228 563.554 197.228H623.898C679.729 197.228 724.974 242.056 724.974 297.372Z" fill="white"/>
<path d="M4.7254 469.952C2.11926 469.952 0 472.052 0 474.634V512.088C0 514.67 2.11929 516.77 4.7254 516.77C7.3315 516.77 9.45079 514.67 9.45079 512.088V474.634C9.45079 472.051 7.3315 469.952 4.7254 469.952Z" fill="black"/>
<path d="M4.7254 582.315C2.11926 582.315 0 584.415 0 586.997V659.565C0 662.147 2.11929 664.247 4.7254 664.247C7.3315 664.247 9.45079 662.147 9.45079 659.565V586.997C9.45079 584.415 7.3315 582.315 4.7254 582.315Z" fill="black"/>
<path d="M4.7254 685.315C2.11926 685.315 0 687.414 0 689.996V762.564C0 765.146 2.11929 767.246 4.7254 767.246C7.3315 767.246 9.45079 765.146 9.45079 762.564V689.996C9.45079 687.414 7.3315 685.315 4.7254 685.315Z" fill="black"/>
<path d="M177.496 213.623H87.1269C86.6364 213.623 86.2388 214.017 86.2388 214.503V224.448C86.2388 224.934 86.6364 225.328 87.1269 225.328H177.496C177.987 225.328 178.384 224.934 178.384 224.448V214.503C178.384 214.017 177.987 213.623 177.496 213.623Z" fill="#E6E6E6"/>
<path d="M578.486 225.328C583.706 225.328 587.937 221.136 587.937 215.964C587.937 210.793 583.706 206.601 578.486 206.601C573.266 206.601 569.035 210.793 569.035 215.964C569.035 221.136 573.266 225.328 578.486 225.328Z" fill="#E6E6E6"/>
<path d="M604.476 225.328C609.695 225.328 613.927 221.136 613.927 215.964C613.927 210.793 609.695 206.601 604.476 206.601C599.256 206.601 595.025 210.793 595.025 215.964C595.025 221.136 599.256 225.328 604.476 225.328Z" fill="#E6E6E6"/>
<path d="M630.466 225.328C635.685 225.328 639.917 221.136 639.917 215.964C639.917 210.793 635.685 206.601 630.466 206.601C625.246 206.601 621.015 210.793 621.015 215.964C621.015 221.136 625.246 225.328 630.466 225.328Z" fill="#E6E6E6"/>
<path d="M570.582 846.792H169.749C163.434 846.792 158.297 841.701 158.297 835.445C158.297 829.188 163.434 824.098 169.749 824.098H570.582C576.897 824.098 582.035 829.188 582.035 835.445C582.035 841.701 576.897 846.792 570.582 846.792Z" fill="#E6E6E6"/>
<path d="M371.603 1286.48C463.315 1286.48 537.663 1212.81 537.663 1121.95C537.663 1031.08 463.315 957.422 371.603 957.422C279.891 957.422 205.544 1031.08 205.544 1121.95C205.544 1212.81 279.891 1286.48 371.603 1286.48Z" fill="#0859B8"/>
<path d="M397.995 1068.23C383.981 1068.8 368.137 1069.75 357.779 1080.41C348.779 1089.66 346.807 1103.4 355.933 1113.28C365.083 1123.19 379.309 1124.53 389.856 1132.26C402.241 1141.34 400.427 1159.29 388.442 1167.89C374.31 1178.04 356.063 1173.31 343.143 1163.66C339.832 1161.18 336.618 1166.72 339.892 1169.17C351.467 1177.81 366.572 1182.63 380.884 1178.49C393.801 1174.76 403.813 1164.32 404.832 1150.75C405.318 1144.27 403.459 1137.69 399.393 1132.58C395.101 1127.18 388.92 1123.86 382.671 1121.16C371.913 1116.5 353.39 1110.48 356.518 1095.33C360.309 1076.97 382.87 1075.23 397.995 1074.61C402.126 1074.44 402.147 1068.06 397.995 1068.23Z" fill="white"/>
<path d="M371.996 1059.54L371.379 1199.65C371.361 1203.76 377.803 1203.77 377.821 1199.65L378.438 1059.54C378.456 1055.43 372.014 1055.43 371.996 1059.54Z" fill="white"/>
<path d="M1251.42 0H432.687C402.653 0 378.231 24.1967 378.231 53.9534V609.828C378.231 639.585 402.653 663.782 432.687 663.782H1251.42C1281.45 663.782 1305.87 639.585 1305.87 609.828V53.9534C1305.87 24.1967 1281.45 0 1251.42 0Z" fill="white"/>
<path d="M838.288 330.517C888.888 330.517 929.907 289.876 929.907 239.744C929.907 189.611 888.888 148.97 838.288 148.97C787.688 148.97 746.669 189.611 746.669 239.744C746.669 289.876 787.688 330.517 838.288 330.517Z" fill="#0859B8"/>
<path d="M855.668 199.236C844.327 199.699 831.56 200.412 822.981 208.774C815.875 215.7 813.39 226.483 819.92 234.638C826.795 243.225 838.229 244.854 847.204 250.342C852.782 253.752 856.478 258.919 856.598 265.558C856.71 271.775 853.815 277.582 848.974 281.478C837.098 291.037 820.902 287.08 809.667 278.72C807.456 277.076 805.313 280.768 807.499 282.395C816.804 289.318 828.785 293.339 840.364 290.36C851.022 287.618 859.608 279.311 860.762 268.211C861.979 256.512 854.226 248.546 844.173 243.976C834.983 239.799 818.865 235.348 820.385 222.371C822.317 205.871 842.704 204.02 855.668 203.491C858.422 203.379 858.436 199.123 855.668 199.236Z" fill="white"/>
<path d="M835.96 191.52L835.445 308.272C835.433 311.011 839.727 311.014 839.739 308.272L840.254 191.52C840.266 188.782 835.972 188.778 835.96 191.52Z" fill="white"/>
<path d="M1251.42 0H432.687C402.653 0 378.231 24.1967 378.231 53.9534V609.828C378.231 639.585 402.653 663.782 432.687 663.782H1251.42C1281.45 663.782 1305.87 639.585 1305.87 609.828V53.9534C1305.87 24.1967 1281.45 0 1251.42 0ZM1300.15 609.828C1300.15 636.464 1278.3 658.108 1251.42 658.108H432.687C405.803 658.108 383.957 636.464 383.957 609.828V53.9534C383.957 27.3172 405.803 5.67335 432.687 5.67335H1251.42C1278.3 5.67335 1300.15 27.3172 1300.15 53.9534V609.828Z" fill="black"/>
<path d="M747.657 54.8896H667.318C663.281 54.8896 659.989 58.1519 659.989 62.1515C659.989 66.1796 663.281 69.4418 667.318 69.4418H747.657C751.694 69.4418 754.986 66.1796 754.986 62.1515C754.986 58.1519 751.694 54.8896 747.657 54.8896Z" fill="#E6E6E6"/>
<path d="M882.222 54.8896H801.884C797.847 54.8896 794.554 58.1519 794.554 62.1515C794.554 66.1796 797.847 69.4418 801.884 69.4418H882.222C886.259 69.4418 889.552 66.1796 889.552 62.1515C889.552 58.1519 886.259 54.8896 882.222 54.8896Z" fill="#E6E6E6"/>
<path d="M1016.79 54.8896H936.449C932.412 54.8896 929.12 58.1519 929.12 62.1515C929.12 66.1796 932.412 69.4418 936.449 69.4418H1016.79C1020.82 69.4418 1024.12 66.1796 1024.12 62.1515C1024.12 58.1519 1020.82 54.8896 1016.79 54.8896Z" fill="#E6E6E6"/>
<path d="M1149.29 381.577H534.814C509.247 381.577 488.46 402.171 488.46 427.503V468.975C488.46 494.307 509.247 514.901 534.814 514.901H1149.29C1174.86 514.901 1195.65 494.307 1195.65 468.975V427.503C1195.65 402.171 1174.86 381.577 1149.29 381.577Z" fill="#0859B8"/>
<path d="M209.519 599.933L185.956 588.874C195.621 602.237 203.949 623.107 208.407 639.715C215.956 624.245 228.124 605.317 240.169 594.01L215.266 600.358C230.611 525.844 288.329 472.351 354.425 472.351V466.677C285.387 466.677 225.188 522.411 209.519 599.933Z" fill="black"/>
<path d="M317.971 713.468H169.09C162.775 713.468 157.638 708.378 157.638 702.121C157.638 695.865 162.775 690.775 169.09 690.775H317.971C324.286 690.775 329.423 695.865 329.423 702.121C329.423 708.378 324.286 713.468 317.971 713.468Z" fill="#E6E6E6"/>
<path d="M1308.37 676.512L1306.87 792.359L1277.78 895.629L1254.52 887.034L1264.85 792.377L1263.49 664.28L1308.37 676.512Z" fill="#FFB6B6"/>
<path d="M1277.68 912.282C1280.41 897.432 1275.41 884.093 1266.51 882.488C1257.61 880.882 1248.18 891.619 1245.45 906.468C1242.72 921.318 1247.73 934.657 1256.63 936.262C1265.52 937.868 1274.95 927.131 1277.68 912.282Z" fill="#FFB6B6"/>
<path d="M1273.07 538.574C1273.07 538.574 1322.91 539.254 1322.87 565.485C1322.84 580.294 1319.63 714.759 1310.7 796.446C1303.81 859.439 1290.66 875.873 1290.66 875.873L1259.16 804.956L1273.07 538.574Z" fill="#E6E6E6"/>
<path d="M1271.79 775.259H1103.47C1117.58 744.068 1126.26 714.364 1112.7 690.736L1271.79 681.598C1263.84 713.495 1262.87 744.798 1271.79 775.259Z" fill="#FFB6B6"/>
<path d="M1251.04 498.846L1184.17 494.277L1156.5 528.543L1142.48 531.07C1121.45 534.858 1106.48 553.448 1107.42 574.601L1112.88 697.465L1272.7 709.011L1310.99 549.017L1264.87 530.828L1251.04 498.846Z" fill="#E6E6E6"/>
<path d="M843.27 535.909C848.013 540.138 851.4 545.077 853.189 549.867L900.949 587.319L882.297 609.314L835.857 568.955C830.861 567.698 825.546 564.882 820.802 560.653C809.965 550.994 806.209 537.624 812.413 530.791C818.617 523.958 832.432 526.25 843.27 535.909Z" fill="#FFB6B6"/>
<path d="M1180.93 567.438L997.935 689.868L866.758 599.423L886.452 564.078L989.695 623.525L1084.91 551.093C1118.81 519.54 1161.31 525.656 1180.93 567.438Z" fill="#E6E6E6"/>
<path d="M1213.64 484.017C1241.04 484.017 1263.25 462.013 1263.25 434.869C1263.25 407.725 1241.04 385.721 1213.64 385.721C1186.24 385.721 1164.03 407.725 1164.03 434.869C1164.03 462.013 1186.24 484.017 1213.64 484.017Z" fill="#FFB6B6"/>
<path d="M1281.07 422.794V432.325L1225.12 416.724L1183.18 425.432C1182.69 419.106 1180.8 412.894 1177.65 407.391C1179.84 416.217 1180.09 423.046 1177.77 426.567L1172.12 427.73C1171.21 425.262 1169.43 423.106 1167.11 421.801C1166.89 421.659 1166.6 421.546 1166.34 421.631C1165.94 421.773 1165.91 422.283 1165.91 422.681C1165.97 424.78 1166.03 426.879 1166.11 428.978L1149.91 432.325V422.794C1134.36 388.136 1175.34 358.145 1215.5 357.834C1233.62 357.694 1250 365.096 1261.88 376.84C1273.74 388.612 1281.07 404.838 1281.07 422.794Z" fill="#2F2E41"/>
<path d="M1312.54 534.554L1308.31 534.208C1308.61 532.839 1308.91 531.487 1309.19 530.119C1311.53 518.631 1306.38 504.008 1306 492.971C1304.01 504.632 1307.41 518.978 1303.89 530.049C1303.5 531.279 1288.21 539.218 1287.79 540.431C1270.87 534.301 1253.26 514.714 1233.3 526.154C1221.51 532.92 1208.04 529.954 1194.64 526.856C1191.33 526.089 1190.87 509.865 1187.59 509.227C1181.71 508.086 1173.08 522.835 1167.54 523.411L1190.45 435.474C1190.45 387.636 1185.98 337.446 1247.14 354.361C1262.52 358.616 1277.75 361.95 1289.1 374.529C1300.45 387.125 1308.54 404.729 1311.4 424.775C1313.13 436.869 1323.9 477.932 1312.54 534.554Z" fill="#2F2E41"/>
<path d="M1273.04 1418.85L1245.74 1419.49L1230.52 1297.95L1270.81 1297.01L1273.04 1418.85Z" fill="#FFB7B7"/>
<path d="M1179.37 1475.29C1179.37 1479.86 1182.64 1483.56 1186.68 1483.56H1240.87C1240.87 1483.56 1246.21 1462.32 1267.95 1453.18L1269.45 1483.56H1297.41L1294.02 1434.71C1294.02 1434.71 1301.5 1408.57 1285.97 1395.21C1270.44 1381.85 1283.02 1383.71 1283.02 1383.71L1276.91 1353.48L1234.66 1358.4L1234.35 1405.86L1213.85 1452.97L1183.77 1467.69C1181.1 1469 1179.37 1471.99 1179.37 1475.29Z" fill="#2F2E41"/>
<path d="M1189.97 1399.04L1163.73 1406.52L1117.88 1292.79L1156.61 1281.75L1189.97 1399.04Z" fill="#FFB7B7"/>
<path d="M1113.82 1477.19C1114.99 1481.61 1119.1 1484.37 1123.01 1483.35L1175.43 1469.73C1175.43 1469.73 1175.15 1447.84 1193.84 1433.53L1203.07 1462.54L1230.12 1455.51L1214.33 1409.11C1214.33 1409.11 1214.87 1381.95 1196.42 1372.93C1177.98 1363.91 1190.62 1362.55 1190.62 1362.55L1176.97 1334.84L1137.36 1350.22L1149.22 1396.21L1141.46 1446.93L1116.14 1468.73C1113.88 1470.67 1112.97 1473.99 1113.82 1477.19Z" fill="#2F2E41"/>
<path d="M1256.3 768.079L1273.48 773.752C1300.34 822.9 1311.72 888.166 1310.22 966.868L1279.7 1320.35H1229.78L1193.24 926.558L1128.82 1074.36L1175.96 1320.35L1128.82 1325.11L1033.89 1069.32L1100.01 772.035L1256.3 768.079Z" fill="#2F2E41"/>
</g>
<defs>
<clipPath id="clip0_114_2">
<rect width="1562" height="1485" fill="white"/>
</clipPath>
</defs>
</svg>
